<?xml version="1.0" standalone="no"?>
<!DOCTYPE svg PUBLIC "-//W3C//DTD SVG 20010904//EN"
 "http://www.w3.org/TR/2001/REC-SVG-20010904/DTD/svg10.dtd">
<svg version="1.0" xmlns="http://www.w3.org/2000/svg"
 width="961.000000pt" height="961.000000pt" viewBox="0 0 961.000000 961.000000"
 preserveAspectRatio="xMidYMid meet">
<metadata>
Created by potrace 1.11, written by Peter Selinger 2001-2013
</metadata>
<g transform="translate(0.000000,961.000000) scale(0.100000,-0.100000)"
fill="#000000" stroke="none">
<path d="M4617 9604 c-1 -1 -54 -5 -117 -8 -130 -7 -207 -13 -265 -22 -22 -3
-47 -6 -55 -6 -14 0 -63 -7 -160 -23 -19 -3 -36 -7 -37 -9 -3 -3 -4 -1540 -3
-4316 l0 -1085 2786 2 c1532 1 2787 3 2789 5 12 12 34 256 41 448 14 401 -7
695 -81 1135 -30 173 -147 589 -207 734 -6 14 -12 28 -13 31 0 3 -5 16 -9 30
-10 30 -13 37 -96 230 -151 348 -385 732 -643 1053 -43 53 -88 108 -100 121
-12 14 -44 50 -72 82 -61 70 -270 281 -346 349 -31 28 -71 64 -90 80 -28 26
-171 142 -229 188 -151 118 -448 312 -615 401 -27 15 -57 31 -65 36 -43 27
-340 163 -435 199 -125 49 -139 54 -177 69 -38 15 -314 101 -341 106 -12 2
-47 11 -77 20 -30 8 -66 17 -80 20 -14 2 -63 13 -110 24 -47 11 -107 23 -135
28 -27 4 -54 8 -60 10 -17 3 -77 13 -130 20 -27 3 -57 8 -65 9 -14 3 -71 9
-175 20 -127 14 -618 28 -628 19z"/>
<path d="M1625 8407 c-94 -83 -336 -326 -407 -407 -31 -36 -68 -78 -83 -95
-14 -16 -38 -46 -53 -65 -15 -19 -29 -37 -32 -40 -36 -35 -290 -392 -290 -408
0 -6 -4 -12 -8 -14 -7 -3 -52 -72 -94 -145 -10 -18 -28 -50 -40 -70 -77 -133
-164 -309 -245 -498 -74 -173 -189 -509 -209 -609 -2 -10 -8 -33 -13 -50 -6
-17 -12 -42 -15 -56 -6 -30 -10 -48 -30 -125 -8 -33 -17 -78 -21 -100 -3 -22
-7 -51 -10 -65 -10 -46 -13 -68 -21 -117 -3 -26 -8 -57 -10 -68 -2 -11 -6 -45
-9 -75 -3 -30 -8 -73 -10 -95 -14 -129 -20 -270 -19 -505 0 -244 4 -342 20
-535 4 -38 7 -80 8 -92 1 -12 5 -25 9 -30 12 -11 1656 -10 1660 2 6 20 0 4325
-6 4325 -1 0 -33 -28 -72 -63z"/>
<path d="M5727 3214 c-3 -3 -397 -6 -876 -6 l-871 0 0 -751 c-2 -1671 0 -2371
8 -2378 4 -4 27 -9 52 -12 25 -3 74 -10 110 -16 36 -6 90 -13 120 -16 30 -3
72 -8 93 -10 276 -34 865 -18 1132 31 11 2 40 7 65 10 25 3 52 7 60 9 8 3 33
7 55 11 43 6 105 19 188 40 12 3 31 6 42 8 11 2 30 6 42 10 12 4 30 9 40 11
16 3 46 11 168 45 61 17 229 72 240 79 6 3 17 7 26 8 44 7 327 128 514 220
269 132 595 335 780 485 5 4 55 45 110 89 217 176 489 443 641 629 16 19 31
37 34 40 11 10 149 187 179 230 175 246 316 479 433 715 62 126 173 378 173
395 0 3 3 10 6 15 6 9 25 64 31 90 2 7 -370 11 -1099 12 -606 1 -1121 2 -1145
3 -24 1 -82 1 -129 0 -48 0 -91 0 -95 1 -5 1 -13 1 -19 0 -5 -1 -46 -2 -90 -2
-44 0 -168 0 -275 0 -107 0 -202 0 -210 0 -8 1 -44 0 -80 0 -36 -1 -71 -1 -77
0 -30 3 -41 3 -103 2 -36 0 -72 0 -80 0 -8 0 -49 -1 -92 -2 -42 -1 -80 1 -86
5 -5 3 -12 3 -15 0z"/>
<path d="M290 3199 c0 -16 56 -171 104 -289 40 -96 184 -397 216 -450 5 -8 37
-62 71 -120 54 -92 118 -189 230 -350 33 -48 221 -284 248 -311 9 -9 41 -45
72 -80 126 -142 455 -453 469 -444 5 3 6 2024 1 2046 -2 10 -1411 8 -1411 -2z"/>
</g>
</svg>
