<?xml version="1.0" encoding="utf-8"?>
<!-- Generator: Adobe Illustrator 16.0.0, SVG Export Plug-In . SVG Version: 6.00 Build 0)  -->
<!DOCTYPE svg PUBLIC "-//W3C//DTD SVG 1.1//EN" "http://www.w3.org/Graphics/SVG/1.1/DTD/svg11.dtd">
<svg version="1.1" id="_x31__px" xmlns="http://www.w3.org/2000/svg" xmlns:xlink="http://www.w3.org/1999/xlink" x="0px" y="0px"
	 width="146.67px" height="383.921px" viewBox="0 0 146.67 383.921" enable-background="new 0 0 146.67 383.921"
	 xml:space="preserve">
<g>
	<path fill="#7A7A7A" d="M10.73,341.23h10.56h26.979c6.034,0,10.862-4.827,10.711-10.711c0-5.731-4.827-10.559-10.56-10.56
		l-27.131-0.149v-0.001H10.73c-3.017,0-5.732,1.207-7.693,3.168c-1.961,1.962-3.017,4.525-3.017,7.543
		C0.02,336.554,4.696,341.23,10.73,341.23z"/>
	<path fill="#7A7A7A" d="M135.959,383.921H21.139H10.58c-2.866-0.151-5.582,1.056-7.543,3.017c-1.961,1.962-3.167,4.677-3.017,7.543
		c0,6.034,4.677,10.71,10.71,10.71h10.56l114.671,0.151c5.883-0.151,10.71-4.979,10.71-10.71
		C146.67,388.598,141.994,383.921,135.959,383.921z"/>
	<path fill="#7A7A7A" d="M10.73,277.27l10.56,0.001h26.979c6.034,0,10.861-4.827,10.711-10.711c0.151-5.883-4.676-10.71-10.71-10.71
		H21.29H10.73c-3.017,0-5.732,1.207-7.693,3.168c-1.81,1.81-3.017,4.525-3.017,7.542C0.02,272.292,4.847,277.119,10.73,277.27z"/>
	<path fill="#7A7A7A" d="M10.579,213.158h10.561l74.821,0.001c5.883,0.151,10.71-4.677,10.71-10.71
		c-0.001-5.732-4.827-10.56-10.56-10.56H21.29H10.73c-3.017,0-5.732,1.207-7.693,3.167c-1.811,1.811-3.018,4.526-3.017,7.543
		C0.02,208.332,4.847,213.159,10.579,213.158z"/>
	<path fill="#7A7A7A" d="M10.579,149.198h10.561l27.281,0.001c5.733,0,10.561-4.827,10.56-10.56c0-6.034-4.826-10.861-10.71-10.71
		l-26.98,0v0H10.73c-3.017,0-5.732,1.207-7.542,3.017c-1.961,1.961-3.168,4.676-3.167,7.693
		C0.02,144.372,4.847,149.199,10.579,149.198z"/>
	<path fill="#7A7A7A" d="M10.58,85.238h10.559v0l27.282,0c5.733,0,10.561-4.827,10.711-10.71
		c-0.151-5.883-4.978-10.71-10.711-10.711H21.139H10.58c-2.867,0.151-5.431,1.207-7.392,3.168c-1.81,1.81-3.017,4.224-3.167,7.09
		v0.905C0.322,80.713,5.148,85.239,10.58,85.238z"/>
	<path fill="#7A7A7A" d="M10.73,21.127h10.56l114.67,0.151c5.885-0.15,10.712-4.978,10.711-10.71c0-6.033-4.676-10.709-10.71-10.709
		l-114.821,0H10.579c-2.715,0-5.43,1.207-7.391,3.168S0.02,7.702,0.02,10.417C0.02,16.451,4.847,21.279,10.73,21.127z"/>
</g>
<path d="M611.002,437.321l0.15,21.27h-10.56c-6.034,0-10.71-4.676-10.71-10.71c-0.15-2.866,1.056-5.581,3.017-7.543
	c1.962-1.961,4.677-3.168,7.543-3.017H611.002z"/>
<path d="M589.883,447.881v-63.96c0,6.033,4.676,10.71,10.71,10.71h10.56l-0.15,42.69h-10.56c-2.866-0.151-5.581,1.056-7.543,3.017
	C590.938,442.3,589.732,445.015,589.883,447.881L589.883,447.881z"/>
<path d="M600.593,394.631c-6.034,0-10.71-4.677-10.71-10.71c0-3.018,1.056-5.581,3.017-7.543c1.962-1.961,4.677-3.168,7.693-3.168
	h10.56v21.421H600.593z"/>
<path d="M725.823,458.742l-114.671-0.151l-0.15-21.27h114.82c6.034,0,10.711,4.677,10.711,10.711
	C736.533,453.764,731.706,458.591,725.823,458.742L725.823,458.742z"/>
<path d="M592.899,376.378c-1.961,1.962-3.017,4.525-3.017,7.543V319.96c0,5.732,4.827,10.56,10.71,10.71l10.56,0.001v42.54
	l-10.56-0.001C597.576,373.21,594.861,374.417,592.899,376.378L592.899,376.378z"/>
<path d="M611.152,394.631v-21.42l32.131,0.149c5.732,0.001,10.56,4.828,10.56,10.56c0.151,5.884-4.677,10.711-10.711,10.711H611.152
	z"/>
<path d="M600.593,309.25h10.56v21.421l-10.56-0.001c-5.883-0.15-10.71-4.978-10.71-10.71c0-3.017,1.207-5.732,3.017-7.542
	C594.86,310.457,597.576,309.25,600.593,309.25L600.593,309.25z"/>
<path d="M611.152,330.671V309.25h31.98c6.034,0,10.861,4.827,10.71,10.71c0.15,5.884-4.677,10.711-10.711,10.711H611.152z"/>
<path d="M592.899,312.418c-1.81,1.81-3.017,4.525-3.017,7.542V256c0,5.732,4.827,10.56,10.559,10.559h10.561l0.15,42.691h-10.56
	C597.576,309.25,594.86,310.457,592.899,312.418L592.899,312.418z"/>
<path d="M600.441,266.559c-5.731,0.001-10.559-4.826-10.559-10.559c0-3.017,1.207-5.732,3.018-7.543
	c1.96-1.96,4.676-3.167,7.692-3.167h10.56l-0.15,21.269H600.441z"/>
<path d="M592.9,248.457c-1.811,1.811-3.018,4.526-3.018,7.543v-63.96c0,5.732,4.827,10.56,10.559,10.559h10.561l0.15,42.691h-10.56
	C597.576,245.29,594.86,246.497,592.9,248.457z"/>
<path d="M600.441,202.599c-5.731,0.001-10.559-4.826-10.559-10.559c0-3.017,1.207-5.732,3.168-7.693
	c1.811-1.811,4.525-3.018,7.542-3.017h10.56l-0.15,21.269H600.441z"/>
<path d="M685.823,266.56l-74.821-0.001l0.15-21.269h74.821c5.732,0,10.559,4.827,10.56,10.56
	C696.533,261.883,691.706,266.711,685.823,266.56z"/>
<path d="M589.883,192.04v-63.659c0.301,5.732,5.129,10.258,10.56,10.257l10.559,0l0.151,42.69h-10.56
	c-3.017,0-5.731,1.207-7.542,3.017C591.09,186.308,589.883,189.023,589.883,192.04z"/>
<path d="M643.133,181.33c5.884-0.15,10.71,4.676,10.71,10.71c0.001,5.732-4.826,10.56-10.56,10.56l-32.281-0.001l0.15-21.27
	L643.133,181.33z"/>
<path d="M600.442,138.639c-5.431,0-10.258-4.525-10.56-10.257v-0.905c0.15-2.866,1.357-5.28,3.168-7.09
	c1.961-1.961,4.525-3.018,7.392-3.168h10.56v21.42H600.442z"/>
<path d="M611.001,138.639l0.001-21.421h32.281c5.733,0.001,10.56,4.828,10.711,10.711c-0.15,5.883-4.978,10.71-10.711,10.71
	L611.001,138.639z"/>
<path d="M589.883,127.477V63.818c0,6.034,4.827,10.861,10.71,10.71h10.56l-0.15,42.69h-10.56c-2.866,0.151-5.431,1.207-7.392,3.168
	C591.24,122.197,590.033,124.61,589.883,127.477L589.883,127.477z"/>
<path d="M600.593,74.528c-5.883,0.151-10.71-4.676-10.71-10.71c0-2.715,1.207-5.431,3.168-7.392s4.676-3.168,7.391-3.168h10.561
	l0.15,21.27H600.593z"/>
<path d="M725.822,74.679l-114.67-0.151l-0.15-21.27l114.821,0c6.034,0,10.71,4.676,10.71,10.709
	C736.534,69.701,731.707,74.529,725.822,74.679L725.822,74.679z"/>
</svg>
